<?xml version="1.0" encoding="utf-8"?>
<!-- Generator: Adobe Illustrator 16.0.0, SVG Export Plug-In . SVG Version: 6.00 Build 0)  -->
<svg version="1.1" xmlns="http://www.w3.org/2000/svg" xmlns:xlink="http://www.w3.org/1999/xlink" x="0px" y="0px"
	 width="800px" height="205px" viewBox="0 0 800 205" enable-background="new 0 0 800 205" xml:space="preserve">
<g>
	<g>
		<circle fill="#FFFFFF" cx="98.667" cy="98.243" r="98.234"/>
		<g>
			<path fill="#E03F32" d="M81.229,164.959c1.12,1.6-0.159,3.679-2.079,3.199c-32.318-4.319-55.197-51.996-25.119-79.515
				c33.278-30.397,40.798-48.477,36.798-58.236c-0.479-1.439,0.641-2.56,1.76-2.08c11.04,5.439,35.999,21.918,27.679,57.757
				c0,0,14.399-0.16,14.878-13.76c0-1.44,1.601-1.76,2.561-1.12c6.24,5.759,21.599,22.239,19.519,43.998
				c-3.04,31.678-24.798,48.157-40.797,51.997c-1.6,0.479-3.04-1.439-2.08-2.721c4.64-6.879,12.799-20.799-4.32-34.557
				c-12.799-9.6-14.399-19.68-12.639-25.919c0.16-1.12-0.96-1.76-1.6-1.12C62.83,130.722,74.829,155.68,81.229,164.959z"/>
		</g>
	</g>
	<g>
		<path fill="#FFFFFF" d="M300.575,111.683c0,23.198-11.198,34.078-30.237,34.078c-17.12,0-29.279-9.439-29.279-28.479V58.886
			c0-4.32,3.36-7.52,7.52-7.52c4.32,0,7.52,3.359,7.52,7.52v24.318c2.72-2.719,8.639-5.759,15.52-5.759
			C289.696,77.604,300.575,88.643,300.575,111.683z M256.099,117.442c0,9.919,5.76,15.358,13.919,15.358
			c9.92,0,15.039-7.039,15.039-21.118s-5.279-20.959-14.879-20.959c-8.479,0-13.919,7.36-13.919,7.36v19.359H256.099z"/>
		<path fill="#FFFFFF" d="M323.774,59.046v69.436c0,1.601,1.6,2.561,2.72,2.561c3.84,0,7.04,3.199,7.04,7.039s-3.2,7.039-7.04,7.039
			c-11.039,0-18.079-6.239-18.079-18.078V59.046c0-4.32,3.36-7.52,7.521-7.52C320.255,51.206,323.774,54.726,323.774,59.046z"/>
		<path fill="#FFFFFF" d="M350.494,96.643c-1.441,0.96-2.561,1.44-4.32,1.44c-3.68,0-6.72-3.04-6.72-6.72c0-1.6,0.48-3.2,1.76-4.641
			c3.84-4.319,11.039-9.119,23.198-9.119c17.599,0,28.159,8.639,28.159,23.519v36.158c0,4.159-3.359,7.519-7.52,7.519
			c-4.159,0-7.52-3.359-7.52-7.519c-3.84,6.239-10.079,8.318-18.559,8.318c-13.919,0-23.199-8.639-23.199-21.277
			c0.16-13.279,10.72-19.84,23.039-19.84h18.559v-2.559c0-6.399-4.64-10.56-12.8-10.56
			C358.333,91.364,354.012,94.083,350.494,96.643z M377.531,120.482v-3.84h-16.479c-6.24,0-9.599,3.039-9.599,7.999
			c0,5.44,3.839,8.64,11.678,8.64C370.652,133.121,377.531,128.161,377.531,120.482z"/>
		<path fill="#FFFFFF" d="M431.128,77.604c13.119,0,20.64,6.4,23.199,9.919c1.12,1.6,1.6,2.72,1.6,4.319
			c0,3.84-3.039,6.88-6.879,6.88c-2.241,0-3.84-0.96-5.28-2.56c-1.76-2.08-5.44-5.44-12.64-5.44c-9.919,0-15.358,7.52-15.358,21.119
			c0,13.6,5.439,21.12,15.358,21.12c6.4,0,10.72-3.2,13.919-5.761c1.601-1.119,2.721-1.439,4.32-1.439c3.84,0,6.88,3.04,6.88,6.879
			c0,2.08-0.641,3.681-2.56,5.28c-3.2,3.04-11.04,8-22.72,8c-19.198,0-30.718-11.04-30.718-34.079
			C400.25,88.804,411.93,77.604,431.128,77.604z"/>
		<path fill="#FFFFFF" d="M504.725,142.24l-21.119-28.479l-4.641,3.36v20.319c0,4.319-3.358,7.358-7.519,7.358
			c-4.32,0-7.52-3.199-7.52-7.358V58.406c0-4.32,3.199-7.36,7.52-7.36c4.318,0,7.519,3.2,7.519,7.36v41.917l25.6-20.158
			c1.759-1.44,3.198-1.76,4.96-1.76c4.159,0,7.358,3.199,7.358,7.359c0,2.08-0.96,4.32-2.72,5.76l-18.559,14.239l20.799,27.199
			c1.119,1.6,1.599,3.199,1.599,4.639c0,4.16-3.198,7.36-7.357,7.36C507.923,145.12,506.003,143.841,504.725,142.24z"/>
		<path fill="#FFFFFF" d="M527.123,92.484c-3.36,0-6.399-2.72-6.399-6.399c0-3.36,2.72-6.4,6.399-6.4h3.039v-7.52
			c0-13.279,8.639-21.599,27.038-21.599c3.68,0,6.72,3.041,6.72,6.72c0,3.68-3.04,6.72-6.72,6.72
			c-7.839,0-11.679,4.319-11.679,10.559v5.28h9.439c3.36,0,6.399,2.72,6.399,6.399c0,3.36-2.719,6.399-6.399,6.399h-9.439v45.278
			c0,4.319-3.359,7.36-7.521,7.36c-4.64,0-7.519-3.2-7.519-7.36V92.484H527.123z"/>
		<path fill="#FFFFFF" d="M568.4,67.845c0-6.399,3.199-9.12,8.96-9.12c5.759,0,8.959,2.72,8.959,9.12c0,5.439-3.2,8.639-8.959,8.639
			C571.6,76.484,568.4,73.285,568.4,67.845z M584.879,137.441c0,4.319-3.359,7.52-7.519,7.52c-4.32,0-7.521-3.36-7.521-7.52V88.643
			c0-4.319,3.359-7.519,7.521-7.519c4.32,0,7.519,3.359,7.519,7.519V137.441z"/>
		<path fill="#FFFFFF" d="M610.317,86.723c2.72-5.439,9.438-9.119,15.359-9.119c3.839,0,7.359,3.199,7.359,7.36
			c0,3.84-3.2,7.359-7.359,7.359c-9.92,0-15.359,6.239-15.359,15.838v29.279c0,4.319-3.36,7.52-7.519,7.52
			c-4.32,0-7.521-3.36-7.521-7.52V86.084c0-4.32,3.36-7.52,7.521-7.52c4.318,0,7.519,3.36,7.519,7.52V86.723z"/>
		<path fill="#FFFFFF" d="M664.556,77.604c23.998,0,28.477,18.399,28.477,28.158c0,5.28,0,11.52-8.639,11.52h-35.038
			c0,10.239,7.359,14.879,16.479,14.879c6.239,0,10.56-2.079,13.919-4.319c1.602-0.96,2.721-1.601,4.641-1.601
			c3.68,0,6.719,3.04,6.719,6.721c0,2.239-1.119,4.159-2.559,5.278c-2.561,2.24-9.921,7.84-22.879,7.84
			c-19.68,0-31.84-10.559-31.84-34.397C633.835,89.764,645.036,77.604,664.556,77.604z M649.677,104.482h28.156
			c0-6.879-3.84-13.759-13.277-13.759C656.235,90.723,650.315,95.524,649.677,104.482z"/>
		<path fill="#FFFFFF" d="M700.712,139.681c0-4.8,2.561-6.88,6.721-6.88s6.719,2.08,6.719,6.88s-2.559,6.72-6.719,6.72
			S700.712,144.32,700.712,139.681z"/>
		<path fill="#FFFFFF" d="M721.352,67.045c0-4.16,2.08-5.76,5.44-5.76c3.357,0,5.438,1.6,5.438,5.76c0,3.36-2.08,5.44-5.438,5.44
			C723.432,72.644,721.352,70.564,721.352,67.045z M731.431,141.761c0,2.56-2.079,4.64-4.639,4.64c-2.561,0-4.641-2.08-4.641-4.64
			V83.844c0-2.561,2.08-4.64,4.641-4.64c2.56,0,4.639,2.079,4.639,4.64V141.761z"/>
		<path fill="#FFFFFF" d="M799.906,112.643c0,23.358-11.52,34.398-30.078,34.398c-18.399,0-30.078-11.04-30.078-34.398
			c0-23.359,11.679-34.398,30.078-34.398C788.547,78.244,799.906,89.124,799.906,112.643z M790.787,112.643
			c0-18.079-7.52-26.079-20.639-26.079s-20.639,8-20.639,26.079c0,18.399,7.52,26.078,20.639,26.078
			S790.787,131.042,790.787,112.643z"/>
	</g>
</g>
<path fill="#FFFFFF" d="M621.197,188.799c0.16,1.279,0.479,2.079,1.119,2.719c0.961,1.12,2.56,1.76,4.8,1.76
	c1.44,0,2.399-0.16,3.36-0.48c1.761-0.639,2.399-1.76,2.399-3.039c0-0.959-0.479-1.6-1.279-2.08s-1.919-0.959-3.841-1.281
	l-2.88-0.639c-2.878-0.64-4.959-1.439-5.919-2.08c-1.76-1.279-2.72-3.199-2.72-5.76c0-2.398,0.96-4.479,2.561-5.919
	c1.759-1.601,4.479-2.399,7.839-2.399c2.879,0,5.279,0.799,7.359,2.238c2.081,1.441,3.04,3.682,3.199,6.561h-5.279
	c-0.16-1.76-0.8-2.721-2.08-3.52c-0.96-0.48-1.92-0.641-3.359-0.641c-1.601,0-2.72,0.321-3.52,0.961
	c-0.959,0.641-1.439,1.439-1.439,2.399s0.48,1.761,1.439,2.079c0.64,0.32,1.76,0.801,3.52,1.121l4.8,1.119
	c2.079,0.48,3.68,1.12,4.801,1.92c1.759,1.28,2.398,3.04,2.398,5.439c0,2.4-0.96,4.641-2.879,6.08
	c-1.762,1.76-4.64,2.399-8.16,2.399s-6.4-0.8-8.479-2.399c-1.92-1.76-3.041-3.84-3.041-6.559
	C615.757,188.799,621.197,188.799,621.197,188.799z"/>
<path fill="#FFFFFF" d="M652.234,177.438c1.441,0.64,2.562,1.76,3.521,2.88c0.801,1.279,1.439,2.561,1.599,4.16
	c0.162,0.959,0.162,2.24,0.162,3.998h-14.56c0.159,1.921,0.798,3.361,2.08,4.32c0.798,0.48,1.76,0.801,2.878,0.801
	c1.12,0,2.081-0.32,2.881-0.96c0.48-0.321,0.8-0.8,1.12-1.44h5.279c-0.16,1.28-0.8,2.4-1.92,3.68c-1.761,1.921-4.32,2.88-7.52,2.88
	c-2.56,0-5.119-0.8-7.04-2.399c-1.919-1.76-3.039-4.32-3.039-7.999c0-3.521,0.961-6.08,2.721-7.999c1.76-1.761,4.32-2.721,7.2-2.721
	C649.195,176.639,650.795,176.799,652.234,177.438z M644.396,182.078c-0.8,0.801-1.28,1.76-1.439,3.04h8.959
	c-0.161-1.44-0.64-2.399-1.44-3.2c-0.798-0.799-1.76-1.119-3.039-1.119C646.155,180.959,645.195,181.278,644.396,182.078z"/>
<path fill="#FFFFFF" d="M673.675,178.238c1.439,1.121,1.919,2.881,1.919,5.279v13.439h-5.279v-12.159c0-1.12-0.161-1.76-0.481-2.399
	c-0.479-1.12-1.6-1.6-2.879-1.6c-1.76,0-2.88,0.799-3.681,2.239c-0.319,0.8-0.479,1.76-0.479,3.041v11.198h-5.278v-19.998h5.119
	v2.877c0.639-1.117,1.439-1.758,1.76-2.238c1.12-0.799,2.399-1.279,4.16-1.279C670.475,176.799,672.235,177.119,673.675,178.238z"/>
<path fill="#FFFFFF" d="M681.833,190.878c0.16,0.96,0.32,1.6,0.801,1.919c0.641,0.801,1.76,1.121,3.68,1.121
	c1.119,0,1.76-0.16,2.4-0.48c0.639-0.32,0.959-0.8,0.959-1.439c0-0.641-0.32-1.12-0.801-1.439c-0.479-0.32-2.238-0.801-5.438-1.602
	c-2.24-0.64-3.84-1.279-4.802-2.079c-0.959-0.799-1.438-1.919-1.438-3.521c0-1.76,0.799-3.359,2.08-4.799
	c1.438-1.439,3.52-1.92,6.078-1.92c2.4,0,4.641,0.48,6.08,1.6c1.439,1.121,2.398,2.721,2.721,5.279h-5.281
	c0-0.639-0.318-1.278-0.639-1.6c-0.641-0.799-1.6-1.119-2.881-1.119c-1.119,0-1.918,0.16-2.4,0.479
	c-0.479,0.319-0.799,0.8-0.799,1.28c0,0.641,0.32,1.119,0.799,1.439c0.482,0.32,2.242,0.8,5.44,1.439
	c2.081,0.48,3.681,1.281,4.8,2.24c1.121,0.961,1.602,2.241,1.602,3.84c0,1.92-0.801,3.68-2.08,4.96
	c-1.602,1.279-3.84,1.759-6.881,1.759c-3.199,0-5.439-0.641-7.039-1.92c-1.6-1.439-2.24-3.039-2.24-5.119h5.279V190.878
	L681.833,190.878z"/>
<path fill="#FFFFFF" d="M701.513,174.719h-5.279v-4.801h5.279V174.719z M696.073,177.119h5.279v20.158h-5.279V177.119z"/>
<path fill="#FFFFFF" d="M720.552,194.557c-1.76,2.08-4.32,3.039-7.681,3.039c-3.358,0-5.919-1.118-7.679-3.039
	c-1.76-1.919-2.561-4.638-2.561-7.518c0-2.881,0.961-5.281,2.561-7.521c1.76-2.08,4.32-3.201,7.679-3.201
	c3.36,0,5.921,1.121,7.681,3.201c1.76,2.079,2.559,4.64,2.559,7.521C723.11,190.078,722.312,192.638,720.552,194.557z
	 M716.392,191.838c0.799-1.121,1.279-2.561,1.279-4.641c0-1.918-0.48-3.52-1.279-4.639c-0.801-1.121-1.92-1.76-3.521-1.76
	c-1.599,0-2.56,0.479-3.519,1.6c-0.801,1.119-1.28,2.561-1.28,4.641c0,2.079,0.479,3.52,1.28,4.639
	c0.799,1.119,1.92,1.76,3.519,1.76C714.312,193.438,715.591,192.958,716.392,191.838z"/>
<path fill="#7EC04B" d="M724.55,170.08h5.6v22.236h13.44v4.961h-19.198V170.08H724.55z"/>
<path fill="#7EC04B" d="M752.391,184.959c0.959-0.161,1.758-0.322,2.08-0.48c0.798-0.32,1.118-0.801,1.118-1.6
	c0-0.801-0.32-1.441-0.96-1.76c-0.641-0.32-1.439-0.48-2.561-0.48c-1.278,0-2.079,0.32-2.559,0.959c-0.32,0.48-0.642,1.121-0.8,1.76
	h-4.961c0.161-1.76,0.641-3.201,1.601-4.318c1.438-1.76,3.84-2.561,7.2-2.561c2.079,0,4.159,0.48,5.759,1.439
	c1.76,0.961,2.561,2.4,2.561,4.961v9.119c0,0.64,0,1.439,0,2.24c0,0.639,0.16,1.279,0.318,1.438c0.162,0.32,0.482,0.481,0.801,0.64
	v0.961h-5.6c-0.158-0.479-0.319-0.8-0.319-1.119c0-0.322-0.161-0.801-0.161-1.281c-0.799,0.8-1.599,1.439-2.399,1.921
	c-1.118,0.639-2.399,0.959-3.84,0.959c-1.76,0-3.359-0.479-4.479-1.599c-1.28-1.12-1.76-2.4-1.76-4.48
	c0-2.4,0.959-4.319,2.879-5.281c1.12-0.639,2.559-1.117,4.64-1.278L752.391,184.959z M755.748,187.358
	c-0.318,0.159-0.639,0.319-1.119,0.479c-0.319,0.16-0.801,0.32-1.439,0.32l-1.279,0.159c-1.12,0.159-1.921,0.481-2.4,0.801
	c-0.8,0.479-1.28,1.279-1.28,2.239c0,0.959,0.321,1.601,0.8,1.92c0.48,0.48,1.119,0.641,1.761,0.641c1.12,0,2.079-0.32,3.198-0.96
	c0.961-0.642,1.601-1.761,1.601-3.681C755.748,189.438,755.748,187.358,755.748,187.358z"/>
<path fill="#7EC04B" d="M779.908,179.678c1.6,1.76,2.238,4.32,2.238,7.361c0,3.039-0.799,5.599-2.078,7.679
	c-1.6,1.919-3.521,3.039-6.08,3.039c-1.76,0-3.04-0.32-4-0.959c-0.641-0.481-1.279-1.121-1.921-1.921v2.4h-5.278V170.08h5.278v9.598
	c0.642-0.959,1.44-1.76,2.081-2.079c0.959-0.64,2.08-0.96,3.68-0.96C776.389,176.799,778.309,177.599,779.908,179.678z
	 M775.588,191.678c0.801-1.119,1.121-2.4,1.121-4.319c0-1.44-0.161-2.561-0.641-3.521c-0.801-1.76-1.92-2.56-3.84-2.56
	s-3.199,0.961-4,2.56c-0.32,0.96-0.641,2.08-0.641,3.521c0,1.76,0.32,3.039,1.121,4.319c0.799,1.119,1.919,1.76,3.52,1.76
	C773.668,193.438,774.788,192.797,775.588,191.678z"/>
<path fill="#7EC04B" d="M787.268,190.878c0.16,0.96,0.32,1.6,0.799,1.919c0.641,0.801,1.76,1.121,3.68,1.121
	c1.121,0,1.762-0.16,2.4-0.48c0.641-0.32,0.959-0.8,0.959-1.439c0-0.641-0.318-1.12-0.799-1.439c-0.48-0.32-2.24-0.801-5.439-1.602
	c-2.24-0.64-3.84-1.279-4.801-2.079c-0.959-0.799-1.438-1.919-1.438-3.521c0-1.76,0.799-3.359,2.078-4.799
	c1.439-1.439,3.52-1.92,6.08-1.92c2.4,0,4.641,0.48,6.078,1.6c1.602,1.121,2.4,2.721,2.721,5.279h-5.279
	c0-0.639-0.32-1.278-0.639-1.6c-0.641-0.799-1.602-1.119-2.881-1.119c-1.119,0-1.92,0.16-2.4,0.479s-0.799,0.8-0.799,1.28
	c0,0.641,0.318,1.119,0.799,1.439s2.24,0.8,5.439,1.439c2.08,0.48,3.68,1.281,4.801,2.24c1.119,1.121,1.6,2.241,1.6,3.84
	c0,1.92-0.801,3.68-2.08,4.96c-1.6,1.279-3.84,1.759-6.881,1.759c-3.199,0-5.439-0.641-7.039-1.92
	c-1.598-1.439-2.238-3.039-2.238-5.119h5.279V190.878z"/>
<path fill="#FFFFFF" d="M586.479,188.158c0,6.398-2.88,9.278-8,9.278c-4.479,0-7.68-2.398-7.68-7.679v-19.199
	c0-0.8,0.641-1.279,1.28-1.279c0.641,0,1.279,0.639,1.279,1.279v10.72c0.96-1.28,2.721-2.56,5.281-2.56
	C583.759,179.039,586.479,181.918,586.479,188.158z M573.359,190.078c0,3.68,2.08,5.279,5.281,5.279c3.519,0,5.438-2.24,5.438-7.04
	s-1.92-7.039-5.438-7.039c-3.682,0-5.281,3.358-5.281,3.358V190.078z"/>
<path fill="#FFFFFF" d="M594.479,196.478l-6.4-15.519c0-0.16-0.161-0.32-0.161-0.641c0-0.8,0.641-1.279,1.28-1.279
	c0.801,0,1.12,0.479,1.28,0.799l5.439,13.439l5.439-13.439c0.161-0.479,0.479-0.799,1.28-0.799s1.279,0.639,1.279,1.279
	c0,0.32-0.159,0.48-0.159,0.641l-7.68,18.238c-1.599,3.84-3.52,5.761-7.199,5.761c-0.64,0-1.279-0.48-1.279-1.281
	c0-0.64,0.479-1.279,1.279-1.279C592.078,202.558,592.878,200.317,594.479,196.478z"/>
</svg>
